<svg viewBox="0 0 20 20" fill="#9282fa" xmlns="http://www.w3.org/2000/svg" id="Service-Fill--Streamline-Remix-Fill" height="20" width="20">
  <desc>
    Service Fill Streamline Icon: https://streamlinehq.com
  </desc>
  <path d="M11.76775 8.732666666666667c-0.3254166666666667 -0.3255 -0.8530833333333334 -0.3255 -1.1784999999999999 0L10 9.321916666666667c-0.6509166666666667 0.6508333333333334 -1.7061750000000002 0.6508333333333334 -2.35705 0 -0.6508750000000001 -0.6509166666666667 -0.6508750000000001 -1.7061833333333332 0 -2.3570583333333333l4.692216666666667 -4.693458333333334c1.75325 -0.396625 3.6655 0.08755833333333334 5.0305 1.4525583333333334 2.016166666666667 2.0161333333333338 2.110666666666667 5.226208333333333 0.2836666666666667 7.354291666666668l-1.7568333333333335 1.7791666666666666 -4.124750000000001 -4.124750000000001ZM2.634275 3.7239583333333335C4.445433333333334 1.9128 7.220091666666668 1.6523583333333334 9.308333333333334 2.942633333333333L6.464433333333334 5.7863500000000005c-1.3017416666666668 1.3017500000000002 -1.3017416666666668 3.412316666666667 0 4.714066666666667 1.2623083333333334 1.26225 3.2851500000000002 1.3005 4.593483333333333 0.11474999999999999l0.12058333333333333 -0.11474999999999999 3.5355000000000003 3.5355000000000003 -3.5355000000000003 3.5355833333333337c-0.6509166666666667 0.6508333333333334 -1.7061666666666668 0.6508333333333334 -2.3569999999999998 0l-6.187225 -6.18725c-2.11534 -2.1153333333333335 -2.11534 -5.544958333333334 0 -7.660291666666667Z" stroke-width="0.8333"></path>
</svg>